<svg width="24" height="24" viewBox="0 0 24 24" fill="none" xmlns="http://www.w3.org/2000/svg">
<path d="M12 22C6.477 22 2 17.523 2 12C2 6.477 6.477 2 12 2C17.523 2 22 6.477 22 12C22 17.523 17.523 22 12 22ZM12 20C14.1217 20 16.1566 19.1571 17.6569 17.6569C19.1571 16.1566 20 14.1217 20 12C20 9.87827 19.1571 7.84344 17.6569 6.34315C16.1566 4.84285 14.1217 4 12 4C9.87827 4 7.84344 4.84285 6.34315 6.34315C4.84285 7.84344 4 9.87827 4 12C4 14.1217 4.84285 16.1566 6.34315 17.6569C7.84344 19.1571 9.87827 20 12 20Z" fill="#A3ABB7"/>
<path d="M5 8H6.88124L7.6555 11.8825L8.44255 8H10.2854V16H8.84567V11.2783L7.80267 16H7.31636L6.29256 11.2783V16H5V8Z" fill="#A3ABB7"/>
<path d="M11.9939 9.94685H10.8421V8H14.611V9.94685H13.4529V16H11.9939V9.94685Z" fill="#A3ABB7"/>
<path d="M15.1543 8H17.3171C17.8504 8 18.2428 8.19021 18.4945 8.57063C18.7504 8.95105 18.8784 9.45828 18.8784 10.0923V10.1371C18.8784 11.0695 18.6139 11.6438 18.085 11.8601C18.3665 11.9497 18.5883 12.151 18.7504 12.4643C18.9168 12.7702 19 13.1916 19 13.7287V13.7734C19 15.2578 18.4348 16 17.3043 16H15.1543V8ZM17.0292 14.3329C17.3918 14.3329 17.5731 14.0531 17.5731 13.4937V13.449C17.5731 12.9044 17.3811 12.6322 16.9972 12.6322H16.5685V14.3329H17.0292ZM17.01 11.1217C17.1891 11.1217 17.3171 11.0657 17.3939 10.9538C17.4707 10.842 17.5091 10.6629 17.5091 10.4168V10.372C17.5091 9.89464 17.3406 9.65594 17.0036 9.65594H16.5685V11.1217H17.01Z" fill="#A3ABB7"/>
</svg>
